<?xml version="1.0" encoding="iso-8859-1"?>
<!-- Generator: Adobe Illustrator 16.0.0, SVG Export Plug-In . SVG Version: 6.00 Build 0)  -->
<!DOCTYPE svg PUBLIC "-//W3C//DTD SVG 1.1//EN" "http://www.w3.org/Graphics/SVG/1.1/DTD/svg11.dtd">
<svg version="1.1" id="Capa_1" xmlns="http://www.w3.org/2000/svg" xmlns:xlink="http://www.w3.org/1999/xlink" x="0px" y="0px"
	 width="35px" height="35px" viewBox="0 0 35 35" style="enable-background:new 0 0 35 35;" xml:space="preserve">
<g>
	<path d="M31.021,22.111c-1.242,0.562-2.353,0.85-3.354,0.939v-4.287c1.554-0.408,2.774-1.79,2.881-3.44l0.216-3.4
		c0.062-0.97-0.263-1.887-0.915-2.581c-0.575-0.613-1.344-0.966-2.184-1.044V2.364c0-1.3-1.062-2.364-2.363-2.364H9.698
		c-1.3,0-2.363,1.064-2.363,2.364v5.934C6.496,8.376,5.727,8.729,5.152,9.342c-0.652,0.694-0.977,1.611-0.915,2.581l0.216,3.4
		c0.105,1.651,1.327,3.032,2.881,3.44v4.287c-1.002-0.091-2.113-0.376-3.355-0.939c1.142,1.037,2.267,1.798,3.355,2.345v8.181
		C7.334,33.938,8.397,35,9.697,35h15.604c1.301,0,2.363-1.062,2.363-2.363v-8.181C28.754,23.909,29.879,23.148,31.021,22.111z
		 M12.733,18.9c1.977,0,3.688-1.604,3.813-3.577l0.135-2.126h1.638l0.135,2.126c0.127,1.973,1.838,3.577,3.813,3.577h3.753v4.127
		c-4.329-0.536-6.328-4.646-8.521-2.772c-2.192-1.873-4.191,2.236-8.521,2.772V18.9H12.733z M29.485,11.842l-0.217,3.4
		c-0.083,1.311-1.221,2.378-2.535,2.378h-4.465c-1.314,0-2.451-1.067-2.535-2.378l-0.216-3.4c-0.039-0.613,0.163-1.189,0.569-1.624
		c0.408-0.433,0.971-0.673,1.584-0.673h5.66c0.614,0,1.176,0.24,1.584,0.673C29.322,10.652,29.524,11.229,29.485,11.842z
		 M15.005,1.704h4.992c0.158,0,0.287,0.128,0.287,0.286c0,0.158-0.129,0.287-0.287,0.287h-4.992c-0.158,0-0.286-0.129-0.286-0.287
		C14.719,1.832,14.847,1.704,15.005,1.704z M26.022,3.75v4.516h-4.35c-0.973,0-1.867,0.381-2.519,1.076
		c-0.582,0.62-0.886,1.422-0.903,2.275h-1.498c-0.018-0.854-0.322-1.655-0.904-2.275c-0.651-0.695-1.546-1.076-2.518-1.076h-4.35
		V3.75H26.022z M5.733,15.242l-0.216-3.4c-0.039-0.613,0.163-1.189,0.57-1.624c0.407-0.433,0.97-0.673,1.584-0.673h5.659
		c0.615,0,1.177,0.24,1.584,0.673c0.407,0.435,0.609,1.011,0.57,1.624l-0.217,3.4c-0.083,1.311-1.221,2.378-2.535,2.378H8.267
		C6.955,17.62,5.817,16.553,5.733,15.242z M17.501,33.818c-0.653,0-1.183-0.529-1.183-1.184s0.529-1.182,1.183-1.182
		s1.183,0.527,1.183,1.182S18.154,33.818,17.501,33.818z M26.022,30.625H8.981v-5.5c3.811,1.221,6.988-0.126,8.521-1.624
		c1.532,1.498,4.709,2.845,8.521,1.624L26.022,30.625L26.022,30.625z"/>
</g>
<g>
</g>
<g>
</g>
<g>
</g>
<g>
</g>
<g>
</g>
<g>
</g>
<g>
</g>
<g>
</g>
<g>
</g>
<g>
</g>
<g>
</g>
<g>
</g>
<g>
</g>
<g>
</g>
<g>
</g>
</svg>
